<svg width="40" height="40" viewBox="0 0 40 40" fill="none" xmlns="http://www.w3.org/2000/svg">
<path fill-rule="evenodd" clip-rule="evenodd" d="M19.9468 39.5106C30.9631 39.5106 39.8936 30.6659 39.8936 19.7553C39.8936 8.84476 30.9631 0 19.9468 0C8.93049 0 0 8.84476 0 19.7553C0 30.6659 8.93049 39.5106 19.9468 39.5106Z" fill="#F5F6FA" fill-opacity="0.01"/>
<mask id="mask0_2_14" style="mask-type:luminance" maskUnits="userSpaceOnUse" x="0" y="0" width="40" height="40">
<path fill-rule="evenodd" clip-rule="evenodd" d="M19.9468 39.5106C30.9631 39.5106 39.8936 30.6659 39.8936 19.7553C39.8936 8.84476 30.9631 0 19.9468 0C8.93049 0 0 8.84476 0 19.7553C0 30.6659 8.93049 39.5106 19.9468 39.5106Z" fill="white"/>
</mask>
<g mask="url(#mask0_2_14)">
</g>
<path d="M20.1063 18.4383V21.7745H24.8253C24.1364 23.7161 22.2815 25.1106 20.1063 25.1106C17.3473 25.1106 15.102 22.8654 15.102 20.1064C15.102 17.3474 17.3473 15.1021 20.1063 15.1021C21.3023 15.1021 22.4533 15.5308 23.3474 16.3098L25.5392 13.7943C24.038 12.4866 22.1097 11.766 20.1063 11.766C15.5074 11.766 11.7659 15.5075 11.7659 20.1064C11.7659 24.7053 15.5074 28.4468 20.1063 28.4468C24.7052 28.4468 28.4467 24.7053 28.4467 20.1064V18.4383H20.1063Z" fill="black"/>
<mask id="mask1_2_14" style="mask-type:luminance" maskUnits="userSpaceOnUse" x="11" y="11" width="18" height="18">
<path d="M20.1063 18.4383V21.7745H24.8253C24.1364 23.7161 22.2815 25.1106 20.1063 25.1106C17.3473 25.1106 15.102 22.8654 15.102 20.1064C15.102 17.3474 17.3473 15.1021 20.1063 15.1021C21.3023 15.1021 22.4533 15.5308 23.3474 16.3098L25.5392 13.7943C24.038 12.4866 22.1097 11.766 20.1063 11.766C15.5074 11.766 11.7659 15.5075 11.7659 20.1064C11.7659 24.7053 15.5074 28.4468 20.1063 28.4468C24.7052 28.4468 28.4467 24.7053 28.4467 20.1064V18.4383H20.1063Z" fill="white"/>
</mask>
<g mask="url(#mask1_2_14)">
<rect x="7" y="7" width="26.2128" height="26.2128" fill="white"/>
</g>
</svg>
